<svg width="53" height="55" viewBox="0 0 53 55" fill="none" xmlns="http://www.w3.org/2000/svg">
<path d="M26.5 12.1702C24.6281 12.1702 22.7983 12.7405 21.2419 13.809C19.6855 14.8775 18.4725 16.3963 17.7561 18.1732C17.0398 19.9501 16.8524 21.9054 17.2176 23.7917C17.5828 25.6781 18.4841 27.4108 19.8077 28.7708C21.1314 30.1308 22.8177 31.0569 24.6536 31.4321C26.4895 31.8074 28.3925 31.6148 30.1218 30.8788C31.8512 30.1427 33.3293 28.8963 34.3693 27.2972C35.4092 25.698 35.9643 23.8179 35.9643 21.8946C35.9643 19.3155 34.9672 16.8421 33.1923 15.0184C31.4174 13.1947 29.0101 12.1702 26.5 12.1702Z" fill="white"/>
<path d="M26.5 0.500854C21.2588 0.500854 16.1353 2.09777 11.7774 5.08966C7.4195 8.08155 4.02293 12.334 2.0172 17.3094C0.011482 22.2847 -0.513306 27.7594 0.509202 33.0412C1.53171 38.323 4.05559 43.1746 7.76168 46.9826C11.4678 50.7905 16.1896 53.3838 21.3301 54.4344C26.4706 55.485 31.7989 54.9458 36.6411 52.8849C41.4834 50.8241 45.6221 47.3342 48.5339 42.8565C51.4458 38.3788 53 33.1145 53 27.7292C52.992 20.5103 50.1975 13.5895 45.2295 8.48495C40.2615 3.38043 33.5258 0.509091 26.5 0.500854ZM41.6277 45.0892C41.59 42.5382 40.5784 40.1045 38.811 38.3125C37.0435 36.5204 34.6617 35.5136 32.1786 35.5088H20.8214C18.3384 35.5136 15.9565 36.5204 14.189 38.3125C12.4216 40.1045 11.41 42.5382 11.3723 45.0892C7.93972 41.94 5.51907 37.7937 4.43088 33.1995C3.34268 28.6053 3.63827 23.7798 5.2785 19.3621C6.91874 14.9443 9.82625 11.1426 13.616 8.46042C17.4058 5.77823 21.8991 4.34205 26.501 4.34205C31.1028 4.34205 35.5961 5.77823 39.3859 8.46042C43.1757 11.1426 46.0832 14.9443 47.7234 19.3621C49.3636 23.7798 49.6592 28.6053 48.571 33.1995C47.4828 37.7937 45.0622 41.94 41.6296 45.0892H41.6277Z" fill="white"/>
</svg>
