<svg width="38" height="38" viewBox="0 0 38 38" fill="none" xmlns="http://www.w3.org/2000/svg">
<path d="M15.8332 28.5C18.6436 28.4994 21.3729 27.5586 23.5868 25.8273L30.5471 32.7877L32.7859 30.5488L25.8256 23.5885C27.5578 21.3745 28.4992 18.6444 28.4998 15.8333C28.4998 8.84924 22.8173 3.16666 15.8332 3.16666C8.84909 3.16666 3.1665 8.84924 3.1665 15.8333C3.1665 22.8174 8.84909 28.5 15.8332 28.5ZM15.8332 6.33332C21.0724 6.33332 25.3332 10.5941 25.3332 15.8333C25.3332 21.0726 21.0724 25.3333 15.8332 25.3333C10.5939 25.3333 6.33317 21.0726 6.33317 15.8333C6.33317 10.5941 10.5939 6.33332 15.8332 6.33332Z" fill="#323050"/>
</svg>
